<?xml version="1.0" encoding="UTF-8"?>
<!-- Generator: Adobe Illustrator 25.4.1, SVG Export Plug-In . SVG Version: 6.00 Build 0)  -->
<svg version="1.1" xmlns="http://www.w3.org/2000/svg" xmlns:xlink="http://www.w3.org/1999/xlink" x="0px" y="0px" width="128px" height="132px" viewBox="0 0 64 66" style="enable-background:new 0 0 64 66;" xml:space="preserve">
	 <rect width="100%" height="100%" fill="#FFFFFF"/>
<style type="text/css">
	.st0{opacity:0.25;}
	.st1{opacity:0.26;fill:#512698;}
	.st2{opacity:0.27;fill:#512698;}
	.st3{opacity:0.28;fill:#512698;}
	.st4{opacity:0.29;fill:#512698;}
	.st5{opacity:0.3;fill:#512698;}
	.st6{opacity:0.31;fill:#512698;}
	.st7{opacity:0.32;fill:#512698;}
	.st8{opacity:0.33;fill:#512698;}
	.st9{opacity:0.34;fill:#512698;}
	.st10{opacity:0.35;fill:#512698;}
	.st11{display:none;}
	.st12{display:inline;fill:#512698;}
</style>
<g id="Layer_3">
</g>
<g id="Layer_1" class="st0">
	<g>
		<polygon class="st1" points="21,1 11,1 6,11 11,21 21,21 26,11   "/>
		<polygon class="st2" points="37,12 27,12 22,22 27,32 37,32 42,22   "/>
		<polygon class="st3" points="5,12 -5,12 -10,22 -5,32 5,32 10,22   "/>
		<polygon class="st4" points="21,23 11,23 6,33 11,43 21,43 26,33   "/>
	</g>
	<g>
		<polygon class="st5" points="69,-10 59,-10 54,0 59,10 69,10 74,0   "/>
		<polygon class="st5" points="37,-10 27,-10 22,0 27,10 37,10 42,0   "/>
		<polygon class="st6" points="53,1 43,1 38,11 43,21 53,21 58,11   "/>
	</g>
	<g>
		<polygon class="st7" points="53,23 43,23 38,33 43,43 53,43 58,33   "/>
		<polygon class="st6" points="69,34 59,34 54,44 59,54 69,54 74,44   "/>
		<polygon class="st8" points="37,34 27,34 22,44 27,54 37,54 42,44   "/>
		<polygon class="st9" points="53,45 43,45 38,55 43,65 53,65 58,55   "/>
	</g>
	<g>
		<polygon class="st3" points="69,12 59,12 54,22 59,32 69,32 74,22   "/>
	</g>
	<g>
		<polygon class="st6" points="5,34 -5,34 -10,44 -5,54 5,54 10,44   "/>
		<polygon class="st10" points="21,45 11,45 6,55 11,65 21,65 26,55   "/>
		<polygon class="st5" points="5,56 -5,56 -10,66 -5,76 5,76 10,66   "/>
	</g>
	<g>
		<polygon class="st5" points="5,-10 -5,-10 -10,0 -5,10 5,10 10,0   "/>
	</g>
	<g>
		<polygon class="st5" points="37,56 27,56 22,66 27,76 37,76 42,66   "/>
	</g>
	<g>
		<polygon class="st5" points="69,56 59,56 54,66 59,76 69,76 74,66   "/>
	</g>
</g>
<g id="Layer_2" class="st11">
	<rect class="st12" width="64" height="66"/>
</g>
</svg>