<?xml version="1.0" encoding="UTF-8"?>
<!-- Generator: Adobe Illustrator 25.4.1, SVG Export Plug-In . SVG Version: 6.00 Build 0)  -->
<svg version="1.1" xmlns="http://www.w3.org/2000/svg" xmlns:xlink="http://www.w3.org/1999/xlink" x="0px" y="0px" width="500px" height="500px" viewBox="0 0 100 100" style="enable-background:new 0 0 100 100;" xml:space="preserve">
<style type="text/css">
	.st0{fill:#ffc82e;}
	.st1{opacity:0.18;fill:#FFFFFF;}
</style>
<g id="Layer_1">
	<g>
		<rect class="st0" width="100" height="100"/>
	</g>
</g>
<g id="Layer_2">
	<rect x="18.4" y="28.5" class="st1" width="22.5" height="22.5"/>
	<rect x="59.4" y="23.5" class="st1" width="22.5" height="22.5"/>
	<rect x="66.4" y="75.5" class="st1" width="22.5" height="22.5"/>
	<rect x="59.4" y="48.5" class="st1" width="22.5" height="22.5"/>
	<rect x="38.4" y="33.7" class="st1" width="47.3" height="47.3"/>
	<rect x="7.4" y="64" class="st1" width="27" height="27"/>
	<rect x="38.4" y="10" class="st1" width="12.8" height="12.8"/>
	<rect x="4.4" y="10" class="st1" width="12.8" height="12.8"/>
	<rect x="13.4" y="26" class="st1" width="12.8" height="12.8"/>
	<rect x="89.4" y="41" class="st1" width="20.3" height="20.3"/>
	<rect x="-9.6" y="41" class="st1" width="20.3" height="20.3"/>
	<rect x="-9.6" y="17" class="st1" width="20.3" height="20.3"/>
	<rect x="89.4" y="17" class="st1" width="20.3" height="20.3"/>
	<rect x="2.4" y="55" class="st1" width="20.3" height="20.3"/>
	<rect x="2.4" y="-6" class="st1" width="20.3" height="20.3"/>
	<rect x="2.4" y="85" class="st1" width="20.3" height="20.3"/>
	<rect x="28.4" y="17" class="st1" width="20.3" height="20.3"/>
	<rect x="1.4" y="78" class="st1" width="20.3" height="20.3"/>
	<rect x="28.4" y="78" class="st1" width="20.3" height="20.3"/>
	<rect x="78.4" y="-5" class="st1" width="20.3" height="20.3"/>
	<rect x="78.4" y="96" class="st1" width="20.3" height="20.3"/>
	<rect x="51.4" y="69" class="st1" width="20.3" height="20.3"/>
	<rect x="14.4" y="42" class="st1" width="20.3" height="20.3"/>
	<rect x="53.4" y="3" class="st1" width="27" height="27"/>
	<rect x="75.4" y="12.5" class="st1" width="17.5" height="17.5"/>
	<rect x="19.4" y="2.5" class="st1" width="17.5" height="17.5"/>
	<rect x="44.4" y="91.5" class="st1" width="17.5" height="17.5"/>
	<rect x="44.4" y="-9.5" class="st1" width="17.5" height="17.5"/>
	<rect x="79.4" y="75.5" class="st1" width="17.5" height="17.5"/>
	<rect x="87.1" y="62.7" class="st1" width="10.8" height="10.8"/>
	<rect x="43.1" y="39.7" class="st1" width="10.8" height="10.8"/>
	<rect x="40.1" y="53.7" class="st1" width="13.8" height="13.8"/>
	<rect x="25.1" y="65.7" class="st1" width="7.8" height="7.8"/>
	<rect x="39.1" y="1.7" class="st1" width="4" height="4"/>
	<rect x="11.8" y="17.4" class="st1" width="15.3" height="15.3"/>
</g>
</svg>