<?xml version="1.0" encoding="utf-8"?>
<!-- Generator: Adobe Illustrator 18.0.0, SVG Export Plug-In . SVG Version: 6.00 Build 0)  -->
<!DOCTYPE svg PUBLIC "-//W3C//DTD SVG 1.1//EN" "http://www.w3.org/Graphics/SVG/1.1/DTD/svg11.dtd">
<svg version="1.1" id="Layer_1" xmlns="http://www.w3.org/2000/svg" xmlns:xlink="http://www.w3.org/1999/xlink" x="0px" y="0px"
	 viewBox="0 0 612 166.3" enable-background="new 0 0 612 166.3" xml:space="preserve">
<g>
	<g>
		<path fill="#FFFFFF" d="M204.5,58.3c-1.4,2.1-3.7,3.5-6.4,3.5c-2,0-4-0.6-5.4-2.1c-1.6-1.7-1.7-3.5-1.7-5.8V42.2
			c0-1.9,0.3-4-1.6-5.2v-0.1h9.8v0.1c-1.8,1.1-1.6,3.3-1.6,5.2v10.1c0,1.4-0.1,2.8,0.8,4.1c0.6,0.7,1.5,1.1,2.4,1.1
			c3.4,0,3.6-4,3.6-6.4v-8.9c0-1.9,0.3-4-1.6-5.2v-0.1h9.9v0.1c-1.8,1.1-1.6,3.3-1.6,5.2V56c0,1.9-0.3,4,1.6,5.2v0.1h-8.3V58.3z"/>
		<path fill="#FFFFFF" d="M222.2,45.7c1.1-1.4,2.7-2,4.5-2c2,0,3.8,0.5,5.2,2.1c1.4,1.6,1.3,3.3,1.3,5.2v6.1c0,1.7-0.1,2.8,1.3,4
			v0.1h-9v-0.1c1.4-1.1,1.3-2.2,1.3-4V51c0-0.8,0-1.7-0.5-2.4c-0.4-0.7-1.1-1-1.9-1c-0.6,0-1.3,0.3-1.7,0.9
			c-0.6,0.7-0.5,1.7-0.5,2.6v6.2c0,1.7-0.1,2.8,1.3,4v0.1h-9v-0.1c1.4-1.1,1.3-2.2,1.3-4v-8.9c0-1.7,0.1-2.8-1.3-4v-0.1h5
			c0.9,0,1.7-0.1,2.6-0.6h0.1V45.7z"/>
		<path fill="#FFFFFF" d="M241,44.3c1,0,1.8-0.1,2.5-0.6h0.1v13.5c0,1.7-0.1,2.8,1.3,4v0.1h-9v-0.1c1.4-1.2,1.3-2.3,1.3-4v-8.9
			c0-1.7,0.1-2.8-1.3-4v-0.1H241z M236.7,40.1c0-2,1.5-3.7,3.5-3.7c1.9,0,3.5,1.6,3.5,3.5c0,2-1.6,3.6-3.6,3.6
			C238.3,43.5,236.7,41.9,236.7,40.1z"/>
		<path fill="#FFFFFF" d="M257.4,48.6c0.3-0.7,0.7-1.6,0.7-2.4c0-0.8-0.3-1.3-0.8-1.8v-0.1h5.3l-6.8,17.9c-0.7-0.1-1.5-0.4-2.1-0.8
			c-2.8-1.5-3.1-2.2-4.2-5.1l-3.1-8.2c-0.6-1.5-1-2.6-2.1-3.7v-0.1h4.6c0.9,0,1.8,0.1,2.5-0.6h0.1l3.9,10.8L257.4,48.6z"/>
		<path fill="#FFFFFF" d="M280.2,60.6c-1.8,0.8-3.8,1.1-5.8,1.1c-2.5,0-5.3-0.3-7.4-1.8c-2.4-1.7-3.4-4.5-3.4-7.2
			c0-5.2,3.9-8.9,9.1-8.9c5.8,0,8.7,3.4,8.8,9.1H270c0,3.2,2.1,5.5,5.4,5.5c2.1,0,4.4-0.9,6.2-1.9L280.2,60.6z M275.2,49.7
			c0-1.4-0.7-2.7-2.5-2.7c-1.6,0-2.5,1.2-2.7,2.7H275.2z"/>
		<path fill="#FFFFFF" d="M291,46.4c0.6-1.7,2.1-2.6,4-2.6l1.4,0.1v4.5c-0.6-0.1-1.3-0.3-1.9-0.3c-1.1,0-2.1,0.4-2.9,1.3
			c-0.6,0.7-0.5,1.3-0.5,2.3v5.6c0,1.7-0.1,2.8,1.3,4v0.1h-8.9v-0.1c1.4-1.1,1.3-2.2,1.3-4v-8.9c0-1.7,0.1-2.8-1.3-4v-0.1h5.2
			c0.9,0,1.7-0.1,2.4-0.6h0.1V46.4z"/>
		<path fill="#FFFFFF" d="M296.5,56.7c2,1.2,4.2,2,6.5,2c1,0,2.6-0.3,2.6-1.6c0-2.5-8.8-2.6-8.8-7.6c0-2,1-3.5,2.7-4.5
			c1.7-1,3.7-1.2,5.6-1.2c1.9,0,3.8,0.3,5.7,0.7v3.8c-1.4-0.9-3.1-1.4-4.7-1.4c-0.7,0-2.2,0.2-2.2,1.2c0,1.1,1.2,1.4,2.1,1.7
			c1.3,0.4,2.8,0.8,4,1.6c1.6,1,2.8,2.4,2.8,4.3c0,5-5.5,6.1-9.4,6.1c-2.1,0-4.2-0.4-6.2-0.9L296.5,56.7z"/>
		<path fill="#FFFFFF" d="M319.4,44.3c1,0,1.8-0.1,2.5-0.6h0.1v13.5c0,1.7-0.1,2.8,1.3,4v0.1h-9v-0.1c1.4-1.2,1.3-2.3,1.3-4v-8.9
			c0-1.7,0.1-2.8-1.3-4v-0.1H319.4z M315.1,40.1c0-2,1.5-3.7,3.5-3.7c1.9,0,3.5,1.6,3.5,3.5c0,2-1.6,3.6-3.6,3.6
			C316.6,43.5,315.1,41.9,315.1,40.1z"/>
		<path fill="#FFFFFF" d="M325.4,47.7h-2.2v-2.5c3.2-0.3,5.8-3,6.1-6.1h2.6v5.3h4.1v4.5h-0.1c-1-1.1-1.5-1.1-3.1-1.1h-0.9v6.9
			c0,1.3,0,2.3,1.1,3.1c0.9,0.6,2,0.6,3,0.7l-1.6,3.1c-1,0.1-2,0.3-2.9,0.3c-1.5,0-3.4-0.4-4.6-1.4c-1.4-1.3-1.3-3-1.3-4.8V47.7z"/>
		<path fill="#FFFFFF" d="M348.6,48.3c0.2-0.6,0.5-1.4,0.5-2.1c0-0.8-0.4-1.3-0.9-1.8v-0.1h5.4v0.1l-6.9,18.3
			c-0.9,2.4-1.5,4-3.9,5.3c-1.7,0.9-3.7,1-5.5,1l-1.7-0.1l2.9-3.7c0.3,0.1,0.5,0.1,0.8,0.1c2.8,0,3.9-2,4.5-4.4
			c-1.6-1-2.4-2.2-3.1-4l-3.8-9.2c-0.6-1.3-1.2-2.7-2.4-3.4v-0.1h8.1v0.1c0.1,0.6,0.4,1.3,0.7,2l0.3,0.9l2.8,7L348.6,48.3z"/>
		<path fill="#FFFFFF" d="M365.7,52.9c0-5.7,4.1-9.1,9.6-9.1c2.4,0,4.7,0.6,6.5,2.1c1.9,1.6,3.1,4.1,3.1,6.7c0,5.8-4.2,9.2-9.8,9.2
			C369.7,61.8,365.7,58.4,365.7,52.9z M378.7,53.3c0-2.3-0.5-6-3.5-6c-2.6,0-3.3,2.4-3.3,4.6c0,2.5,0.3,6.4,3.5,6.4
			C378.3,58.3,378.7,55.5,378.7,53.3z"/>
		<path fill="#FFFFFF" d="M394.8,57.2c0,1.8,0,2.8,1.3,4v0.1h-8.9v-0.1c1.4-1.1,1.2-2.2,1.3-4v-9.5h-2.5l2.5-3.5v-0.5
			c0-2.3,0.3-4.1,2.1-5.6c1.7-1.4,3.7-1.7,5.8-1.7c1.7,0,3.2,0.1,4.5,0.5l-2.5,3.8c-0.5-0.4-0.9-0.6-1.5-0.6c-2.1,0-2,1.8-2,3.4v0.8
			h4.2v4.3h-0.1c-0.9-0.9-1.7-0.7-3-0.7h-1V57.2z"/>
		<path fill="#FFFFFF" d="M423.8,61.7c-1.3-0.1-2.8-0.8-3.9-1.4c-2.4-1.4-2.8-2.8-3.6-5.3l-4-13.8c-0.5-1.7-1.1-3-2.4-4v-0.1h8v0
			l4.5,16.8h0.1l2.6-10.1c0.2-0.7,0.6-2.1,0.6-2.8c0-1.1-0.8-3.1-1.7-3.8v-0.1h7.8v0.1c-0.1,0.1-0.2,0.4-0.2,0.6
			c0,1.4,0.4,2.7,0.8,4l3.6,12.1h0.1l3.1-11c0.3-0.9,0.6-2,0.6-3c0-1.1-0.6-2-1.3-2.8v-0.1h6.3v0.1l-7.6,24.7
			c-1.3-0.3-2.6-0.9-3.8-1.6c-1.9-1-2.5-2.3-3.1-4.3l-2.7-8.9L423.8,61.7z"/>
		<path fill="#FFFFFF" d="M450.8,44.3c1,0,1.8-0.1,2.5-0.6h0.1v13.5c0,1.7-0.1,2.8,1.3,4v0.1h-9v-0.1c1.4-1.2,1.3-2.3,1.3-4v-8.9
			c0-1.7,0.1-2.8-1.3-4v-0.1H450.8z M446.5,40.1c0-2,1.5-3.7,3.5-3.7c1.9,0,3.5,1.6,3.5,3.5c0,2-1.6,3.6-3.6,3.6
			C448.1,43.5,446.5,41.9,446.5,40.1z"/>
		<path fill="#FFFFFF" d="M456,56.7c2,1.2,4.2,2,6.5,2c1,0,2.6-0.3,2.6-1.6c0-2.5-8.8-2.6-8.8-7.6c0-2,1-3.5,2.7-4.5
			c1.7-1,3.7-1.2,5.6-1.2c1.9,0,3.8,0.3,5.7,0.7v3.8c-1.4-0.9-3.1-1.4-4.7-1.4c-0.7,0-2.2,0.2-2.2,1.2c0,1.1,1.2,1.4,2.1,1.7
			c1.3,0.4,2.8,0.8,4,1.6c1.6,1,2.8,2.4,2.8,4.3c0,5-5.5,6.1-9.4,6.1c-2.1,0-4.2-0.4-6.2-0.9L456,56.7z"/>
		<path fill="#FFFFFF" d="M489,48.4h-0.1c-1.1-0.7-2.3-1.2-3.8-1.2c-1.1,0-2.1,0.4-2.8,1.3c-0.8,1-1,2.4-1,3.7
			c0,1.5,0.5,3.4,1.6,4.6c0.8,1,2.1,1.3,3.4,1.3c1.7,0,3.6-0.7,4.9-1.7h0.1l-1.2,4c-2,1-4.2,1.4-6.4,1.4c-5.1,0-9.5-3.4-9.5-8.7
			c0-6.1,4.7-9.2,10.4-9.2c1.4,0,2.9,0.3,4.4,0.4V48.4z"/>
		<path fill="#FFFFFF" d="M492.7,52.9c0-5.7,4.1-9.1,9.6-9.1c2.4,0,4.7,0.6,6.5,2.1c1.9,1.6,3.1,4.1,3.1,6.7c0,5.8-4.2,9.2-9.8,9.2
			C496.8,61.8,492.7,58.4,492.7,52.9z M505.7,53.3c0-2.3-0.5-6-3.5-6c-2.6,0-3.3,2.4-3.3,4.6c0,2.5,0.3,6.4,3.5,6.4
			C505.3,58.3,505.7,55.5,505.7,53.3z"/>
		<path fill="#FFFFFF" d="M521.4,45.7c1.1-1.4,2.7-2,4.5-2c2,0,3.8,0.5,5.2,2.1c1.4,1.6,1.3,3.3,1.3,5.2v6.1c0,1.7-0.1,2.8,1.3,4
			v0.1h-9v-0.1c1.4-1.1,1.3-2.2,1.3-4V51c0-0.8,0-1.7-0.5-2.4c-0.4-0.7-1.1-1-1.9-1c-0.6,0-1.3,0.3-1.7,0.9
			c-0.6,0.7-0.5,1.7-0.5,2.6v6.2c0,1.7-0.1,2.8,1.3,4v0.1h-9v-0.1c1.4-1.1,1.3-2.2,1.3-4v-8.9c0-1.7,0.1-2.8-1.3-4v-0.1h5
			c0.9,0,1.7-0.1,2.6-0.6h0.1V45.7z"/>
		<path fill="#FFFFFF" d="M535.1,56.7c2,1.2,4.2,2,6.5,2c1,0,2.6-0.3,2.6-1.6c0-2.5-8.8-2.6-8.8-7.6c0-2,1-3.5,2.7-4.5
			c1.7-1,3.7-1.2,5.6-1.2c1.9,0,3.8,0.3,5.7,0.7v3.8c-1.4-0.9-3.1-1.4-4.7-1.4c-0.7,0-2.2,0.2-2.2,1.2c0,1.1,1.2,1.4,2.1,1.7
			c1.3,0.4,2.8,0.8,4,1.6c1.6,1,2.8,2.4,2.8,4.3c0,5-5.5,6.1-9.4,6.1c-2.1,0-4.2-0.4-6.2-0.9L535.1,56.7z"/>
		<path fill="#FFFFFF" d="M558,44.3c1,0,1.8-0.1,2.5-0.6h0.1v13.5c0,1.7-0.1,2.8,1.3,4v0.1h-9v-0.1c1.4-1.2,1.3-2.3,1.3-4v-8.9
			c0-1.7,0.1-2.8-1.3-4v-0.1H558z M553.7,40.1c0-2,1.5-3.7,3.5-3.7c1.9,0,3.5,1.6,3.5,3.5c0,2-1.6,3.6-3.6,3.6
			C555.3,43.5,553.7,41.9,553.7,40.1z"/>
		<path fill="#FFFFFF" d="M570.9,45.7c1.1-1.4,2.7-2,4.5-2c2,0,3.8,0.5,5.2,2.1c1.4,1.6,1.3,3.3,1.3,5.2v6.1c0,1.7-0.1,2.8,1.3,4
			v0.1h-9v-0.1c1.4-1.1,1.3-2.2,1.3-4V51c0-0.8,0-1.7-0.5-2.4c-0.4-0.7-1.1-1-1.9-1c-0.6,0-1.3,0.3-1.7,0.9
			c-0.6,0.7-0.5,1.7-0.5,2.6v6.2c0,1.7-0.1,2.8,1.3,4v0.1h-9v-0.1c1.4-1.1,1.3-2.2,1.3-4v-8.9c0-1.7,0.1-2.8-1.3-4v-0.1h5
			c0.9,0,1.7-0.1,2.6-0.6h0.1V45.7z"/>
		<path fill="#FFFFFF" d="M189.3,116c3.7,3,9.1,5.1,13.8,5.1c3,0,7-1,7-4.7c0-8-20-6.4-20-21.1c0-3.7,1.8-7.4,4.9-9.5
			c3.4-2.4,7.4-3.2,11.4-3.2c3.7,0,7.6,0.7,11,2v7.7c-2.8-1.8-6-3.1-9.3-3.1c-2.6,0-5.7,1.1-5.7,4.2c0,3.2,3.8,4.4,6.2,5.5
			c3.2,1.4,6.1,2.6,8.7,4.9c3.2,2.8,4.9,5.7,4.9,9.9c0,4.3-1.8,8.1-5.3,10.6c-3.9,2.8-8.1,3.4-12.7,3.4c-4.3,0-8.7-0.8-12.7-2.4
			L189.3,116z"/>
		<path fill="#FFFFFF" d="M225.3,102.8h-3.9v-4.5c5.7-0.5,10.3-5.4,10.8-10.9h4.5v9.4h7.3v8h-0.2c-1.8-2-2.7-1.9-5.5-1.9h-1.6v12.3
			c0,2.4-0.1,4.1,2,5.5c1.6,1.1,3.5,1.1,5.3,1.2l-2.9,5.6c-1.7,0.1-3.5,0.5-5.2,0.5c-2.7,0-6.1-0.7-8.2-2.6
			c-2.5-2.2-2.4-5.4-2.4-8.5V102.8z"/>
		<path fill="#FFFFFF" d="M275.1,125.8c-3.2,1.4-6.8,2-10.3,2c-4.5,0-9.5-0.5-13.1-3.2c-4.2-3-6-8-6-12.9c0-9.2,7-15.8,16.1-15.8
			c10.4,0,15.4,6,15.6,16.1h-20.4c0,5.7,3.8,9.7,9.7,9.7c3.7,0,7.8-1.6,11-3.4L275.1,125.8z M266.1,106.4c0-2.6-1.2-4.8-4.4-4.8
			c-2.9,0-4.5,2.2-4.8,4.8H266.1z"/>
		<path fill="#FFFFFF" d="M300.2,104.4c0.5-1.3,1.2-2.8,1.2-4.3c0-1.4-0.5-2.4-1.5-3.2v-0.2h9.4l-12.2,31.8
			c-1.3-0.1-2.6-0.8-3.7-1.4c-4.9-2.6-5.6-3.9-7.5-9l-5.5-14.6c-1-2.6-1.7-4.7-3.7-6.6v-0.2h8.1c1.6,0,3.3,0.1,4.5-1h0.2l6.9,19.1
			L300.2,104.4z"/>
		<path fill="#FFFFFF" d="M340.8,125.8c-3.2,1.4-6.8,2-10.3,2c-4.5,0-9.5-0.5-13.1-3.2c-4.2-3-6-8-6-12.9c0-9.2,7-15.8,16.1-15.8
			c10.4,0,15.4,6,15.6,16.1h-20.4c0,5.7,3.8,9.7,9.7,9.7c3.7,0,7.8-1.6,11-3.4L340.8,125.8z M331.8,106.4c0-2.6-1.3-4.8-4.4-4.8
			c-2.9,0-4.5,2.2-4.8,4.8H331.8z"/>
		<path fill="#FFFFFF" d="M359.8,99.4c1.9-2.4,4.7-3.5,8.1-3.5c3.5,0,6.8,0.9,9.3,3.7c2.4,2.8,2.2,5.8,2.2,9.3v10.8
			c0,3.1-0.2,5,2.3,7v0.2h-16v-0.2c2.5-2,2.3-3.9,2.3-7v-11.1c0-1.4,0-3-0.9-4.2c-0.7-1.2-2-1.8-3.4-1.8c-1.1,0-2.3,0.6-3,1.5
			c-1,1.2-0.9,3.1-0.9,4.5v11.1c0,3.1-0.2,5,2.3,7v0.2h-16v-0.2c2.5-2,2.3-3.9,2.3-7V104c0-3,0.2-4.9-2.3-7v-0.2h8.8
			c1.6,0,3-0.3,4.7-1h0.2V99.4z"/>
		<path fill="#FFFFFF" d="M384.1,118.8c3.5,2.1,7.5,3.6,11.6,3.6c1.8,0,4.7-0.5,4.7-2.9c0-4.4-15.7-4.7-15.7-13.5
			c0-3.5,1.8-6.2,4.9-8c3-1.8,6.6-2.1,10-2.1c3.4,0,6.8,0.5,10.2,1.2v6.8c-2.5-1.6-5.5-2.6-8.4-2.6c-1.3,0-3.9,0.3-3.9,2.1
			c0,2,2.2,2.6,3.7,3c2.4,0.7,5.1,1.4,7.2,2.8c2.8,1.8,5,4.3,5,7.7c0,8.8-9.8,10.8-16.8,10.8c-3.7,0-7.4-0.7-11-1.5L384.1,118.8z"/>
		<path fill="#FFFFFF" d="M449.7,117.5c0,3.7,0.1,6.7,2.9,9.3v0.2H435v-0.2c3.2-2,2.8-5.8,2.8-9.2V93.1c0-3.4,0.5-7.2-2.8-9.2v-0.2
			h15.5c3.7,0,8.5-0.1,11.8,1.6c4,2,6.2,5.8,6.2,10.3c0,9.3-7.9,12.9-16.1,12.9c-0.8,0-1.6,0-2.4-0.1c4.1-1.7,6.4-5.2,6.4-9.6
			c0-4.7-1.6-8.3-6.8-8.5V117.5z"/>
		<path fill="#FFFFFF" d="M470.4,112.1c0-10.1,7.2-16.2,17.1-16.2c4.2,0,8.3,1,11.5,3.7c3.4,2.8,5.5,7.4,5.5,11.8
			c0,10.4-7.5,16.4-17.5,16.4C477.6,127.8,470.4,121.9,470.4,112.1z M493.4,112.9c0-4.1-0.9-10.6-6.2-10.6c-4.7,0-5.8,4.3-5.8,8.2
			c0,4.4,0.5,11.3,6.3,11.3C492.8,121.7,493.4,116.7,493.4,112.9z"/>
		<path fill="#FFFFFF" d="M516.8,96.8c1.8,0,3.2-0.2,4.5-1h0.2v24c0,3-0.2,4.9,2.3,7v0.2h-16v-0.2c2.5-2.1,2.3-4,2.3-7V104
			c0-3.1,0.2-5-2.2-7v-0.2H516.8z M509.2,89.4c0-3.5,2.6-6.5,6.2-6.5c3.4,0,6.2,2.8,6.2,6.2c0,3.6-2.9,6.4-6.4,6.4
			C511.9,95.4,509.2,92.6,509.2,89.4z"/>
		<path fill="#FFFFFF" d="M539.8,99.4c1.9-2.4,4.7-3.5,8.1-3.5c3.5,0,6.8,0.9,9.3,3.7c2.4,2.8,2.2,5.8,2.2,9.3v10.8
			c0,3.1-0.2,5,2.3,7v0.2h-16v-0.2c2.5-2,2.3-3.9,2.3-7v-11.1c0-1.4,0-3-0.9-4.2c-0.7-1.2-2-1.8-3.4-1.8c-1.1,0-2.3,0.6-3,1.5
			c-1,1.2-0.9,3.1-0.9,4.5v11.1c0,3.1-0.2,5,2.3,7v0.2h-16v-0.2c2.5-2,2.3-3.9,2.3-7V104c0-3,0.2-4.9-2.3-7v-0.2h8.8
			c1.6,0,3-0.3,4.7-1h0.2V99.4z"/>
		<path fill="#FFFFFF" d="M565.6,102.8h-3.9v-4.5c5.7-0.5,10.3-5.4,10.8-10.9h4.5v9.4h7.3v8h-0.2c-1.8-2-2.7-1.9-5.5-1.9H577v12.3
			c0,2.4-0.1,4.1,2,5.5c1.6,1.1,3.5,1.1,5.3,1.2l-2.9,5.6c-1.7,0.1-3.5,0.5-5.2,0.5c-2.7,0-6.1-0.7-8.2-2.6
			c-2.5-2.2-2.4-5.4-2.4-8.5V102.8z"/>
	</g>
	<path fill="#FFFFFF" stroke="#FFFFFF" stroke-width="2" d="M186.1,76.1h400.8H186.1z"/>
</g>
<g>
	<circle fill="#623F99" cx="96.6" cy="82.5" r="68.8"/>
	<circle fill="#FFFFFF" cx="96.6" cy="82.5" r="65.9"/>
	<path fill="#FFFFFF" d="M154.3,50.9c10.4,17.7,10.7,45.2,0.2,63c-12.7,22.7-36.2,36.1-62.2,34.4c-24.1-0.9-47.3-17.7-56.6-40.2
		C26.3,84.3,30.7,55,49.4,36.7C66.4,18.8,91.6,12,115.7,19.2C131.3,23.4,146.2,36.4,154.3,50.9z"/>
	<path fill="#623F99" d="M153.6,55.2c10.7,20.8,7.3,49.9-7.9,67.5c-16.2,19.3-40.4,27.4-64.9,21.5c-20.3-4.4-40.5-23.9-45.2-44.3
		c-7.4-27.2,3-54.1,26-70.2c17.2-12.6,44.4-14,63.3-4C136.7,31.7,148,43.2,153.6,55.2z"/>
	<path fill="#FFC20E" d="M150.9,53.1c9.8,16.4,9.8,41.8,0.5,58.4c-12.3,23.1-36.9,36-63.1,32.8C67,142,45.6,125.1,38.6,104.5
		c-8.8-23.9-2.2-51,16.7-67.9c17-16.8,46.3-20.8,67.5-10.3C134,31.6,145,42,150.9,53.1z"/>
	<g>
		<path fill="#623F99" d="M43.7,79.9c0.7,0.5,1.2,1.3,1.1,2.3c0,0.7-0.3,1.4-0.8,1.8c-0.6,0.5-1.2,0.6-2,0.5l-4-0.1
			c-0.7,0-1.4-0.1-1.8,0.5h0l0.1-3.4l0,0c0.4,0.6,1.1,0.6,1.8,0.6l3.5,0.1c0.5,0,1,0.1,1.4-0.2c0.3-0.2,0.4-0.5,0.4-0.8
			c0-1.2-1.3-1.3-2.2-1.3l-3.1-0.1c-0.7,0-1.4-0.1-1.8,0.5l0,0l0.1-3.4l0,0c0.4,0.6,1.1,0.6,1.8,0.6l4.8,0.2c0.7,0,1.4,0.1,1.8-0.5
			l0,0L44.7,80L43.7,79.9z"/>
		<path fill="#623F99" d="M46.8,68.6C46.7,69,46.3,69.7,46,70c-0.7,0.8-1.1,1-2.1,1.4l-3.7,1.7l0,0l3.3,0.7c0.7,0.2,1.3,0.3,1.9-0.2
			l0,0l-0.5,2.4l0,0c-0.4-0.7-0.9-0.8-1.7-0.9l-4.3-0.9c-1-0.2-1.3-0.2-2.2,0.3l0,0l0.5-2.6l0,0l5.8-2.8l-3.2-0.7
			c-0.7-0.2-1.3-0.3-1.9,0.2l0,0l0.5-2.4l0,0c0.4,0.6,0.9,0.8,1.7,0.9L46.8,68.6z"/>
		<path fill="#623F99" d="M46.3,63.9c0.6,0.2,1.3,0.5,1.9,0.1l0,0L47,67.2l0,0c-0.2-0.7-0.9-0.9-1.5-1.1L41,64.6
			c-0.6-0.2-1.3-0.5-1.9-0.1l0,0l1.1-3.3l0,0c0.2,0.7,0.9,0.9,1.5,1.1L46.3,63.9z"/>
		<path fill="#623F99" d="M45,54.7c-0.2-0.2-0.4-0.4-0.6-0.5c-0.4-0.2-0.7-0.1-1,0.1l0,0l1-2.1l0,0l6.4,6.5
			c-0.4,0.4-0.8,0.9-1.3,1.2c-0.7,0.4-1.1,0.5-1.9,0.4L42,59.7c-0.5-0.1-0.8-0.1-1.3,0.1l0,0l1.3-2.6l0,0l0.1,0
			c0.3,0.2,1.1,0.2,1.5,0.3l4.9,0.6L45,54.7z"/>
		<path fill="#623F99" d="M52.7,52.5c0.4-0.3,0.7-0.6,0.9-1c0.4-0.6,0.7-1.2,0.5-1.9l0-0.1l1.3,1.5l-3.2,4.7l0,0
			c0-0.7-0.6-1.1-1.2-1.5l-3.9-2.7c-0.5-0.4-1.1-0.9-1.8-0.6l0,0l2.5-3.7c0.1-0.2,0.2-0.3,0.3-0.5l0,0l1.5,1.1l0,0
			c-0.7-0.1-1.1,0.6-1.4,1.1L48,49.2l1.7,1.2l0.7-1c0.1-0.1,0.2-0.3,0.2-0.4l0-0.1l1.5,1l0,0.1c-0.5-0.1-0.8,0.4-1.1,0.8l-0.2,0.3
			L52.7,52.5z"/>
		<path fill="#623F99" d="M56.7,46.8c0.5,0.5,1,1,1.7,0.8l0,0L56,50.1l0,0c0.1-0.7-0.5-1.2-1-1.6l-3.5-3.2c-0.5-0.5-1-1-1.7-0.8l0,0
			l2.6-2.8c0.4-0.5,0.8-0.8,1.4-1.1c0.8-0.3,1.6-0.1,2.2,0.5c0.7,0.7,0.8,1.6,0.4,2.5l2.9,0.6c0.7,0.1,1.3,0.2,2,0.1l-1.1,1.4
			c-0.5,0.7-0.9,0.9-1.8,0.7l-3.1-0.8L56.7,46.8z M52.7,43.1l2.1,2c0.4-0.7,0.3-1.6-0.3-2.1c-0.3-0.3-0.7-0.5-1.1-0.4
			C53.2,42.7,53,42.8,52.7,43.1L52.7,43.1z"/>
		<path fill="#623F99" d="M60.3,42.5c0.9,0,2-0.3,2.7-0.9c0.4-0.4,0.9-1,0.5-1.6c-1-1.2-3.8,1.5-5.6-0.7c-0.5-0.6-0.6-1.3-0.4-2
			c0.2-0.8,0.7-1.4,1.3-1.9c0.6-0.5,1.2-0.8,1.9-1.1l0.9,1.2c-0.6,0.1-1.3,0.3-1.8,0.7c-0.4,0.3-0.7,0.9-0.4,1.3
			c0.4,0.5,1.1,0.2,1.6,0.1c0.6-0.2,1.2-0.3,1.9-0.3c0.8,0,1.4,0.3,2,0.9c0.5,0.6,0.7,1.4,0.5,2.3c-0.2,0.9-0.8,1.5-1.5,2.1
			c-0.7,0.5-1.4,0.9-2.2,1.2L60.3,42.5z"/>
		<path fill="#623F99" d="M68.7,36.7c0.4,0.6,0.7,1.2,1.4,1.2l0,0l-2.9,1.9l0,0c0.3-0.7-0.1-1.2-0.5-1.8l-2.6-4
			c-0.4-0.6-0.7-1.2-1.4-1.2l0,0l2.9-1.9l0,0c-0.3,0.7,0.2,1.2,0.5,1.8L68.7,36.7z"/>
		<path fill="#623F99" d="M73.7,34c0.3,0.7,0.6,1.2,1.3,1.4l0,0l-3.1,1.6l0,0c0.4-0.6,0-1.2-0.3-1.8l-2.3-4.6
			c-0.2,0.1-0.4,0.1-0.6,0.2c-0.5,0.3-0.8,0.6-1.1,1.1l-0.1,0.1l-0.4-2l0.2-0.1l5.3-2.7l0.5,1.9c-0.4-0.3-0.8-0.2-1.2,0
			c-0.2,0.1-0.4,0.2-0.5,0.4L73.7,34z"/>
		<path fill="#623F99" d="M80.8,31.2c0.2,0.7,0.4,1.2,1.1,1.6l0,0l-3.3,1.1l0,0c0.5-0.6,0.1-1.3-0.1-1.9l-0.6-1.9l-3-2.8
			c-0.3-0.3-0.6-0.6-1.1-0.7l0,0l2.8-1l0,0l2.4,2.4l0.2-1.6c0-0.3,0.1-0.7,0-0.9c-0.1-0.3-0.3-0.5-0.6-0.5l0,0l2.2-0.7l0,0l-0.7,5.1
			L80.8,31.2z"/>
		<path fill="#623F99" d="M92.4,22.2c2.7-0.2,4.8,1.2,5,4c0.2,2.8-1.9,4.6-4.5,4.8c-2.6,0.2-4.8-1.4-5-4.1
			C87.7,24.2,89.8,22.4,92.4,22.2z M91.2,28.7c0.4,0.6,1.1,1,1.8,1c0.7,0,1.3-0.4,1.6-1c0.3-0.5,0.4-1.2,0.3-1.8
			c-0.1-1.5-0.8-3.5-2.6-3.4c-1.5,0.1-2.1,1.6-2,2.9C90.4,27.2,90.8,28.1,91.2,28.7z"/>
		<path fill="#623F99" d="M101.4,29c-0.1,0.7-0.1,1.3,0.4,1.9l0,0l-3.5-0.3l0,0c0.7-0.3,0.6-1.1,0.7-1.7l0.4-4.8
			c0.1-0.7,0.2-1.4-0.4-1.8l0,0l4.5,0.4c0.2,0,0.4,0,0.5,0l0,0l-0.1,1.9l0,0c-0.3-0.6-1-0.6-1.7-0.7l-0.4,0l-0.2,2.1l0.9,0.1
			c0.2,0,0.4,0,0.5,0l0.1,0l-0.1,1.8l-0.1,0c-0.1-0.5-0.7-0.5-1.1-0.6l-0.3,0L101.4,29z"/>
		<path fill="#623F99" d="M112.7,33.4c-0.4-0.2-0.8-0.6-1.1-0.9c-0.6-0.7-0.6-1.2-0.6-2.2l0.3-5c0-0.6,0-1.1-0.3-1.6l0,0l2.6,0.9
			l0,0l-0.5,6l0,0l2-3c0.1-0.2,0.4-0.6,0.5-0.9c0.1-0.4,0.1-1.1-0.1-1.4l0,0l2.5,0.9l0,0c0,0-0.1,0.1-0.1,0.2
			c-0.2,0.5-0.2,0.9-0.2,1.4l-0.2,4.4l0,0l2.3-3.2c0.2-0.3,0.4-0.6,0.5-0.9c0.1-0.4,0.1-0.7-0.1-1.1l0,0l2,0.7l0,0l-5.3,7.2
			c-0.4-0.3-0.8-0.6-1.1-0.9c-0.5-0.6-0.6-1-0.5-1.7l0.1-3.2L112.7,33.4z"/>
		<path fill="#623F99" d="M123.4,36c-0.3,0.6-0.7,1.2-0.4,1.8l0,0l-3-1.7l0,0c0.7,0,1-0.7,1.3-1.3l2.3-4.2c0.3-0.6,0.7-1.2,0.4-1.8
			l0,0l3,1.7l0,0c-0.7,0-1,0.7-1.3,1.3L123.4,36z"/>
		<path fill="#623F99" d="M124.9,36.4c0.2,0.9,0.9,1.8,1.6,2.4c0.5,0.3,1.2,0.6,1.6,0c0.9-1.3-2.5-3.3-0.8-5.6c0.4-0.6,1.1-1,1.8-1
			c0.8,0,1.5,0.3,2.2,0.8c0.6,0.4,1.1,1,1.5,1.5l-0.9,1.2c-0.2-0.6-0.6-1.2-1.1-1.5c-0.4-0.3-1-0.5-1.4,0c-0.4,0.5,0.1,1.1,0.4,1.6
			c0.3,0.6,0.7,1.1,0.8,1.8c0.2,0.8,0.1,1.5-0.3,2.1c-0.5,0.7-1.2,1.1-2,1.1c-0.9,0-1.7-0.4-2.4-0.9c-0.7-0.5-1.3-1.1-1.8-1.8
			L124.9,36.4z"/>
		<path fill="#623F99" d="M139.1,42.2c-0.2-0.7-0.5-1.4-1.1-2c-1.3-1.2-2.6-0.5-3.7,0.6c-1.2,1.3-1.6,2.9-0.2,4.2
			c0.7,0.7,1.6,1,2.6,1.3l-1.8,0.9c-0.8-0.4-1.4-0.9-2.1-1.5c-0.9-0.9-1.6-1.8-1.7-3.2c-0.1-1.3,0.3-2.5,1.2-3.5
			c0.8-0.9,2-1.4,3.2-1.4c1.3,0.1,2.5,0.8,3.4,1.6l1.3,1.5L139.1,42.2z"/>
		<path fill="#623F99" d="M145.6,47.1c1.6,2.2,1.5,4.7-0.8,6.3c-2.3,1.6-4.9,0.8-6.4-1.3c-1.5-2.1-1.4-4.8,0.8-6.4
			C141.4,44.2,144.1,45,145.6,47.1z M139.4,49.5c-0.3,0.7-0.3,1.5,0.1,2c0.4,0.5,1,0.8,1.7,0.8c0.6,0,1.2-0.3,1.7-0.7
			c1.2-0.9,2.5-2.6,1.5-4c-0.9-1.2-2.5-0.9-3.5-0.1C140.4,48,139.7,48.8,139.4,49.5z"/>
		<path fill="#623F99" d="M144.8,63.7c-0.2-0.4-0.2-1.2-0.2-1.6c0-1.1,0.3-1.5,0.8-2.4l1.9-3.6l0,0l-3,1.5c-0.7,0.3-1.2,0.6-1.4,1.3
			l0,0l-1.1-2.2l0,0c0.7,0.3,1.2,0,1.9-0.3l4-1.9c0.9-0.4,1.2-0.6,1.6-1.6l0,0l1.2,2.4l0,0l-2.9,5.8l3-1.4c0.7-0.3,1.2-0.6,1.4-1.3
			l0,0l1.1,2.2l0,0c-0.7-0.3-1.2,0-1.9,0.3L144.8,63.7z"/>
		<path fill="#623F99" d="M147.6,64.2c-0.4,0.9-0.5,2-0.2,2.9c0.2,0.6,0.6,1.2,1.3,1c1.5-0.4,0.1-4.1,2.8-4.9
			c0.7-0.2,1.5-0.1,2.1,0.4c0.6,0.5,1,1.2,1.2,2c0.2,0.7,0.3,1.5,0.3,2.2l-1.4,0.4c0.2-0.6,0.2-1.3,0.1-1.9c-0.1-0.5-0.5-1-1.1-0.8
			c-0.6,0.2-0.6,1-0.7,1.5c-0.1,0.7-0.1,1.3-0.4,1.9c-0.3,0.7-0.8,1.2-1.6,1.5c-0.8,0.2-1.6,0.1-2.3-0.4c-0.7-0.6-1.1-1.3-1.4-2.2
			c-0.2-0.8-0.3-1.7-0.3-2.5L147.6,64.2z"/>
		<path fill="#623F99" d="M149.7,74.2c-0.7,0.1-1.4,0.2-1.7,0.9l0,0l-0.6-3.4l0,0c0.5,0.5,1.2,0.3,1.8,0.2L154,71
			c0.7-0.1,1.4-0.2,1.7-0.9l0,0l0.6,3.4l0,0c-0.5-0.5-1.2-0.3-1.9-0.2L149.7,74.2z"/>
		<path fill="#623F99" d="M148.5,83.7c0-0.4,0.3-1.2,0.4-1.6c0.4-1,0.8-1.2,1.6-1.9l3.1-2.6l0,0l-3.4,0.2c-0.7,0-1.3,0.1-1.8,0.7
			l0,0l-0.1-2.5l0,0c0.6,0.5,1.1,0.5,1.9,0.5l4.4-0.2c1-0.1,1.3-0.1,2.1-0.9l0,0l0.1,2.7l0,0l-4.9,4.2l3.3-0.2
			c0.7,0,1.3-0.1,1.8-0.7l0,0l0.1,2.5l0,0c-0.6-0.5-1.1-0.5-1.9-0.5L148.5,83.7z"/>
	</g>
	<g>
		<path fill="#623F99" d="M50.7,119c0,0.9,0.4,2,1,2.7c0.4,0.4,1,0.9,1.6,0.4c1.2-1-1.6-3.8,0.5-5.6c0.5-0.5,1.3-0.7,2-0.5
			c0.8,0.2,1.4,0.7,1.9,1.3c0.5,0.5,0.9,1.2,1.1,1.9l-1.1,1c-0.1-0.6-0.3-1.3-0.7-1.8c-0.3-0.4-0.9-0.7-1.4-0.3
			c-0.5,0.4-0.2,1.1,0,1.6c0.2,0.6,0.4,1.2,0.4,1.9c0,0.8-0.2,1.4-0.8,2c-0.6,0.5-1.4,0.8-2.2,0.6c-0.9-0.2-1.5-0.7-2.1-1.4
			c-0.6-0.6-1-1.4-1.3-2.2L50.7,119z"/>
		<path fill="#623F99" d="M58.9,127.9c-0.5,0.5-0.9,1-0.8,1.7l0,0l-2.6-2.3l0,0c0.7,0.1,1.1-0.5,1.6-1l3.4-3.9
			c-0.1-0.2-0.3-0.3-0.4-0.5c-0.4-0.4-0.8-0.5-1.4-0.6l-0.1,0l1.7-1.2l0.2,0.2l4.5,3.9l-1.6,1.2c0.1-0.5-0.1-0.8-0.4-1.1
			c-0.2-0.2-0.3-0.3-0.5-0.4L58.9,127.9z"/>
		<path fill="#623F99" d="M63.8,132.1c0.3,0.4,0.6,0.7,1,0.9c0.6,0.4,1.2,0.7,1.9,0.5l0.1,0l-1.5,1.3l-4.7-3.2l0,0
			c0.7,0,1.1-0.6,1.4-1.2l2.7-4c0.4-0.6,0.9-1.1,0.5-1.8l0,0l3.7,2.5c0.2,0.1,0.3,0.2,0.5,0.2l0,0l-1,1.5l0,0c0-0.7-0.6-1-1.1-1.4
			l-0.3-0.2l-1.2,1.7l1,0.7c0.1,0.1,0.3,0.2,0.4,0.2l0.1,0l-1,1.5l-0.1,0c0.1-0.5-0.4-0.8-0.8-1.1l-0.4-0.2L63.8,132.1z"/>
		<path fill="#623F99" d="M75.7,132.5c0.2-0.2,0.4-0.4,0.5-0.6c0.2-0.4,0.1-0.7-0.1-1l0,0l2.1,1l0,0l-6.4,6.5
			c-0.4-0.4-0.9-0.8-1.2-1.3c-0.5-0.7-0.5-1.1-0.4-1.9l0.6-5.7c0.1-0.5,0.1-0.8-0.1-1.3l0,0l2.6,1.2l0,0l0,0.1
			c-0.2,0.3-0.2,1.1-0.3,1.5l-0.6,5L75.7,132.5z"/>
		<path fill="#623F99" d="M79.3,139.5c0.4,0.3,0.8,0.4,1.2,0.6c0.7,0.2,1.4,0.3,2-0.1l0.1,0l-1.1,1.7l-5.4-1.7l0,0
			c0.7-0.2,0.8-0.9,1-1.5l1.4-4.6c0.2-0.6,0.5-1.3,0-1.9l0,0l4.3,1.3c0.2,0.1,0.4,0.1,0.5,0.1l0,0l-0.5,1.8l0,0
			c-0.2-0.7-0.9-0.8-1.5-1L81,134l-0.6,2l1.1,0.4c0.2,0.1,0.3,0.1,0.5,0.1l0.1,0l-0.5,1.7l-0.1,0c0-0.5-0.6-0.7-1.1-0.8l-0.4-0.1
			L79.3,139.5z"/>
		<path fill="#623F99" d="M91.6,143.7c-0.4-0.1-1.1-0.5-1.4-0.7c-0.9-0.6-1-1.1-1.6-2l-2-3.6l0,0l-0.5,3.3c-0.1,0.7-0.2,1.3,0.3,1.9
			l0,0l-2.4-0.4l0,0c0.6-0.4,0.7-1,0.8-1.7l0.6-4.4c0.1-1,0.1-1.3-0.4-2.2l0,0l2.6,0.4l0,0l3.2,5.7l0.5-3.3c0.1-0.7,0.2-1.3-0.3-1.9
			l0,0l2.4,0.4l0,0c-0.6,0.4-0.7,1-0.8,1.7L91.6,143.7z"/>
		<path fill="#623F99" d="M94.2,141.5c0.7,0.6,1.8,1,2.7,1c0.6,0,1.4-0.2,1.4-0.9c0-1.6-3.9-1.2-3.9-4.1c0-0.7,0.3-1.4,0.9-1.9
			c0.6-0.5,1.4-0.6,2.2-0.6c0.7,0,1.5,0.1,2.2,0.4l0,1.5c-0.5-0.3-1.2-0.6-1.8-0.6c-0.5,0-1.1,0.2-1.1,0.8c0,0.6,0.8,0.8,1.2,1.1
			c0.6,0.3,1.2,0.5,1.7,0.9c0.6,0.5,1,1.1,1,1.9c0,0.8-0.3,1.6-1,2.1c-0.7,0.6-1.6,0.7-2.5,0.7c-0.8,0-1.7-0.1-2.5-0.4L94.2,141.5z"
			/>
		<path fill="#623F99" d="M109.7,140.3c0.2,0.7,0.3,1.3,1,1.6l0,0l-3.3,0.8l0,0c0.5-0.5,0.3-1.2,0.1-1.9l-1.1-4.6
			c-0.1-0.6-0.2-1.4-0.9-1.6l0,0l2.9-0.7c0.7-0.2,1.6-0.4,2.3-0.2c0.8,0.2,1.4,0.8,1.6,1.7c0.4,1.8-0.9,2.8-2.5,3.2
			c-0.2,0-0.3,0.1-0.5,0.1c0.7-0.5,1-1.3,0.8-2.1c-0.2-0.9-0.7-1.5-1.7-1.3L109.7,140.3z"/>
		<path fill="#623F99" d="M116.8,131c2.5-1,4.9-0.3,6,2.3c1.1,2.6-0.4,4.9-2.8,5.9c-2.4,1-5,0.2-6-2.3
			C113,134.4,114.4,132,116.8,131z M117.7,137.6c0.6,0.4,1.3,0.6,2,0.4c0.6-0.3,1.1-0.8,1.2-1.5c0.2-0.6,0-1.3-0.2-1.8
			c-0.6-1.3-1.9-3.1-3.5-2.4c-1.4,0.6-1.5,2.2-1,3.4C116.5,136.3,117.1,137.1,117.7,137.6z"/>
		<path fill="#623F99" d="M127.6,133.1c0.3,0.6,0.6,1.2,1.4,1.3l0,0l-3,1.7l0,0c0.3-0.7-0.1-1.2-0.4-1.8l-2.4-4.1
			c-0.3-0.6-0.6-1.2-1.4-1.3l0,0l3-1.7l0,0c-0.3,0.7,0.1,1.2,0.4,1.8L127.6,133.1z"/>
		<path fill="#623F99" d="M137,128.8c-0.4,0.3-1.1,0.5-1.5,0.5c-1,0.2-1.5,0-2.5-0.2l-4-1.1l0,0l2.1,2.7c0.5,0.6,0.8,1,1.6,1.1l0,0
			l-2,1.5l0,0c0.1-0.8-0.2-1.2-0.7-1.8l-2.7-3.5c-0.6-0.8-0.9-1-1.9-1.2l0,0l2.1-1.6l0,0l6.3,1.7l-2-2.6c-0.5-0.6-0.8-1-1.6-1.1l0,0
			l1.9-1.5l0,0c-0.1,0.8,0.2,1.2,0.7,1.8L137,128.8z"/>
		<path fill="#623F99" d="M140.3,122.6c0.5,0.5,1,0.9,1.7,0.8l0,0l-2.4,2.5l0,0c0.1-0.7-0.4-1.2-0.9-1.6l-3.7-3.5
			c-0.2,0.1-0.3,0.3-0.5,0.4c-0.4,0.4-0.6,0.8-0.7,1.4l0,0.1l-1.1-1.7l0.2-0.2l4.1-4.3l1.1,1.6c-0.4-0.2-0.8,0-1.1,0.4
			c-0.2,0.2-0.3,0.3-0.4,0.5L140.3,122.6z"/>
	</g>
	<circle fill="#FFFFFF" cx="96.1" cy="83.3" r="50.2"/>
	<path fill="#623F99" d="M141.8,60.4c8.2,15,6.7,37.1-3.2,50.8c-11.6,16.7-30.1,24.8-50.4,22c-10.2-1.9-19.5-6.2-27.2-13.8l0.5-0.3
		l36.1-0.1l20.8-20.8l1.3,1.3l19.4,7.5c2-1.8,2.4-4.5,3.6-6.8c7.1-19.9,1.2-41.9-15.1-55.4c-14-12.1-36.2-14.7-52.7-6.2
		c-18.3,8.6-29,27.6-27.7,47.7c0.1,3.8,1,7.3,2,10.9l9.6,4.5l32.6,14.6h6.7c0.3,0.5-0.6,1-1.1,1.2H59.2c-13.7-14-17.1-37-9.2-54.8
		c8.4-19.6,28.9-32,50.4-30.3C117.5,33.7,134,44.5,141.8,60.4z"/>
	<path fill="#623F99" d="M96.2,37.8c-0.3,0.5-0.5,1.1-0.5,1.8c0.5,0.7,1.8,0.9,1.8,1.8c-0.7,0.3-1.1-0.7-1.7,0
		c-0.7,0.7,0.2,1.4,0.5,2c0.8,0.1,1.3-0.6,1.8-0.9c0.1,0.7,0.3,2.1,0.4,2.9c-0.6-0.3-1.3-0.3-2-0.5l-1,1.4c-0.1,0.9,2,0.8,0.7,1.8
		c0.1,0.2,0.3,0.5,0.6,0.5c0.9,0.3,1.3-1.9,1.8-0.4c-0.5,0.7,0.5,1.1,0.1,1.8c-0.5,0.2-1.1,0.2-1.5-0.2c-1.5,0.9-1.7,2.6-1.5,4.2
		c0.7,0.5,1.3,1.3,0.9,2.2c-0.1,0.5-0.9,0.7-0.8,1.3c0.6,0.5,0.9,1.1,1.1,1.7c3.4,0.7,7.1,3.6,7.9,7.1c0.6,1.6-0.3,3.6,1.8,4.2
		c0.4,0.4,0.3,1.1,0.1,1.6c-2,0.8-0.9,2.7-1.2,4.4c1,1.3,3.7,2.3,2.9,4.1c-2.8-2.7-7.1-2.4-11.2-2.6c-5.3,0.1-11.5-0.6-15.7,2.3
		c-0.3-0.3-0.5-0.7-0.4-1.2C87.1,76,95,77,101.9,77c-0.4-0.6-0.2-1.5-0.6-2.1c-2,0.7-4.9,0.5-6.5-1.2c1.4-0.4-0.8-2.2,0.9-1.8
		c0.7,0.5,0.4,1.1-0.1,1.6c0.5,0.9,1.5,0.8,2.4,0.9c0.7,0,1.2-0.4,1.8-0.6c0.1-0.6-1-0.3-0.8-1.1c1.3,0.3,0.9-1.2,1.4-1.7l-0.7-0.7
		c-5.1-0.1-12.1-1.8-15.4,2.8c-0.8-0.4-1.4-1.3-0.9-2.3c2.2-0.7,1.1-3.1,2-4.6c0.9-3.4,4.4-6.3,7.8-6.8c0.4-1.1,2-2.2,0.4-3.3
		c-0.1-0.9,0.5-1.6,1.1-2.3c0-1.2,0.3-2.6-0.9-3.2c-0.3,0.1-0.5,0.3-0.7,0.2c-0.2-0.6,1.2-1.5,0-1.5C92.5,49.5,92.7,50,92,50
		c-0.3,0.1-0.7-0.2-0.6-0.5c0.2-0.6-0.4-1.6,0.5-1.8c1.2-0.3,0.3,1.2,1.3,1.1l1.2-0.1c0.1-1,0.6-2.6-0.5-3.3
		c-0.3-0.2-0.6-0.1-0.9-0.1c-0.1,0.4-0.7,0.9-1.1,0.4c-0.7-0.3-0.1-1,0.1-1.3c0.5-0.5,0.7,0.5,1.2,0.3c0.9-0.6,1.3-1.8,1.3-3
		c-0.5-0.5-1.1,0.1-1.6-0.1c0.1-0.9,2.2-1.5,1.6-2.8c-0.1-0.4-0.8-0.7-0.5-1.2c1.3-0.3-0.2-2.5,1.3-2C95.6,36.3,95.7,37.1,96.2,37.8
		z"/>
	<path fill="#623F99" d="M94.3,73.4c-1.5,0.3-2.4,2.4-4.2,2.4c-0.7-0.1-1.3,0.6-1.9-0.1c-0.1-0.9,1.4-0.3,1.9-0.8
		c0.7-0.6,2.2-0.6,2-1.8c1.6-0.4-0.4-1.2,0.6-1.8C93.8,71.5,93.5,72.8,94.3,73.4z"/>
	<path fill="#623F99" d="M107.1,80.6c0.4,0.3,1.5,0.9,0.9,1.5c-0.1,0.1-0.2,0.1-0.3,0.1c-0.1-1.1-1.3-1.3-2.1-1.7
		c-6.5-1.1-14.1-1.2-20.6,0.1c-0.9,0.4-2.3,0.7-2.6,1.7C82,82.2,81.9,82,82,81.7c2.8-2,6.3-2.3,9.9-2.4
		C97.2,79.4,102.6,78.9,107.1,80.6z"/>
	<path fill="#623F99" d="M107.7,84.3v0.3c-0.7-0.1-1.1-0.7-1.7-0.9c-6.9-1.4-15.2-1.5-21.9,0.1l-1,0.7c-0.2-0.1-0.1-0.3-0.1-0.5
		c3.1-2.1,7.5-1.5,11.1-1.9C98.7,82.5,104,81.5,107.7,84.3z"/>
	<path fill="#623F99" d="M96.7,84.6c0,0.2-2.2,0.5-0.9,1.3c1.3-0.5,3-0.1,4.2-0.3c0.2-0.7-0.6-0.5-0.9-0.9c2.4-0.1,5.8,0.1,8,1.7
		c0.3,0.9-0.9,0.8-0.9,1.6v14.2c1.3,1.5,1.7,3.1,1.3,5.1l-8,8c-0.4-0.4-0.1-1.6-1-1.6l-0.2-5.3c1.3-0.9,0.5-2.8,0.7-4.2
		c0.3-0.5,1.1,0.1,1.4-0.5c-0.7-1.4-2.6-1.2-3.8-0.9c-0.6,0.9-2,0.9-3,0.7c-0.3-1.3-1.7-1.2-2.8-1.3c-1.6-0.1-1.9,2.5-3.8,1.3
		c-1-1.3-3.8,0.7-3.7-1.3c0.8-0.4,2.1-0.7,3-0.2l0.2-0.5V88.2c-1.3-1.1-3.6,0.7-4-1.8c1.9-1.5,4.4-1.6,6.9-1.8
		c0.1,0.4-1.1,0.8-0.5,1.2c1.3,0.3,2.8-0.5,4,0.1l0.5-0.5c-0.3-0.5-1-0.6-1.6-0.7C93.3,84.4,95.2,84.5,96.7,84.6z"/>
	<path fill="#FFFFFF" d="M106,86.4l-0.2,0.3l-4.2-0.1c-0.1-0.9,0.9-0.4,1.3-0.8C104.1,85.7,105.5,85.7,106,86.4z"/>
	<path fill="#FFFFFF" d="M87.7,86.8c-1.1-0.2-2.8-0.1-4,0.1l-0.3-0.4c1.1-0.8,2.8-0.7,4.1-0.3C87.7,86.4,87.7,86.6,87.7,86.8z"/>
	<path fill="#FFFFFF" d="M99,87.6c0.2,4.2,0.1,9,0.1,13.5c-0.7,0.2-1.5,0.1-2.2,0.1c-0.7-2.5,1.3-6.3-1.8-7.6
		c-0.5,0.7,0.5,1.3,0.5,2.2h-1.3v-6.4l2.2-0.3c0.4-0.7-0.3-2,0.6-2.3C97.7,87.1,99.5,86.2,99,87.6z"/>
	<path fill="#FFFFFF" d="M92.5,87.3v13.3c-0.8,0.5-2.2,0.1-3,0.2c0.1-0.3,0.7-0.5,0.3-0.8c-0.3-0.5-0.7,0-0.9,0.2
		c-0.2,0.3-0.3,0.5-0.1,0.9h-0.4V89c0.6,0,2.3,0.3,1.8-1.1c0-0.4,0-0.7,0.4-0.9C91.2,87.1,92.2,86.6,92.5,87.3z"/>
	<path fill="#FFFFFF" d="M105.2,88.5l-0.1,13.5c-1-0.1-2,0.1-2.8,0.3l-1.8-2.2V89.3c0.7-0.7,2.4-0.1,2.4-1.5
		C103.6,88.1,105.3,87.2,105.2,88.5z"/>
	<path fill="#FFFFFF" d="M95.6,97.4v0.3c-0.5-0.1-1.1,0.2-1.4-0.3l0.1-0.5C94.7,96.9,95.4,96.9,95.6,97.4z"/>
	<path fill="#FFFFFF" d="M95.7,99v0.3c-0.3,0-1.1,0.1-1.5-0.1C94,98.2,95.5,98.6,95.7,99z"/>
	<path fill="#FFFFFF" d="M95.6,100.4v0.4h-1.2v-0.5C94.7,100.3,95.3,100.2,95.6,100.4z"/>
	<path fill="#FFFFFF" d="M106.1,104.3c-1.4,0.1-3.3-0.1-4.9-0.4C102.6,104.2,104.8,102.7,106.1,104.3z"/>
</g>
</svg>
